<?xml version="1.0" encoding="UTF-8"?>
<svg viewBox="0 0 60 60" xmlns="http://www.w3.org/2000/svg">
 <path transform="matrix(.96566 0 0 .96566 1.2925 .9538)" d="m4.6682 3.1371h50.226a2.1489 2.1489 0 0 1 2.1489 2.1489v50.226a2.1489 2.1489 0 0 1 -2.1489 2.1489h-50.226a2.1489 2.1489 0 0 1 -2.1489 -2.1489v-50.226a2.1489 2.1489 0 0 1 2.1489 -2.1489" fill="#b3b3b3" fill-rule="evenodd" stroke="#333" stroke-width="3.2361"/>
 <path transform="matrix(.9512 0 0 .9512 18.908 21.135)" d="m-3.8016 31.833 5.889-41.916" fill="none" stroke="#333" stroke-linejoin="round" stroke-width="5.2566"/>
 <path transform="matrix(.9512 0 0 .9512 18.908 21.135)" d="m9.8408 31.833 5.889-41.916" fill="none" stroke="#333" stroke-linejoin="round" stroke-width="5.2566"/>
 <path transform="matrix(.9512 0 0 .9512 18.908 21.135)" d="m23.483 31.833 5.889-41.916" fill="none" stroke="#333" stroke-linejoin="round" stroke-width="5.2566"/>
 <path transform="matrix(.9512 0 0 .9512 18.908 21.135)" d="m29.287-9.9166h-32.747" fill="none" stroke="#333" stroke-linecap="round" stroke-linejoin="round" stroke-width="5.2566"/>
 <path transform="matrix(.9512 0 0 .9512 18.908 21.135)" d="m25.509-9.9166h-33.287" fill="none" stroke="#333" stroke-linejoin="round" stroke-width="5.2566"/>
</svg>
